<?xml version="1.0" encoding="utf-8"?>
<!-- Generator: Adobe Illustrator 25.2.1, SVG Export Plug-In . SVG Version: 6.00 Build 0)  -->
<!DOCTYPE svg PUBLIC "-//W3C//DTD SVG 1.0//EN" "http://www.w3.org/TR/2001/REC-SVG-20010904/DTD/svg10.dtd" [
	<!ENTITY ns_extend "http://ns.adobe.com/Extensibility/1.0/">
	<!ENTITY ns_ai "http://ns.adobe.com/AdobeIllustrator/10.0/">
	<!ENTITY ns_graphs "http://ns.adobe.com/Graphs/1.0/">
	<!ENTITY ns_vars "http://ns.adobe.com/Variables/1.0/">
	<!ENTITY ns_imrep "http://ns.adobe.com/ImageReplacement/1.0/">
	<!ENTITY ns_sfw "http://ns.adobe.com/SaveForWeb/1.0/">
	<!ENTITY ns_custom "http://ns.adobe.com/GenericCustomNamespace/1.0/">
	<!ENTITY ns_adobe_xpath "http://ns.adobe.com/XPath/1.0/">
]>
<svg version="1.0" id="Layer_1" xmlns:x="&ns_extend;" xmlns:i="&ns_ai;" xmlns:graph="&ns_graphs;"
	 xmlns="http://www.w3.org/2000/svg" xmlns:xlink="http://www.w3.org/1999/xlink" x="0px" y="0px" viewBox="0 0 133 127"
	 style="enable-background:new 0 0 133 127;" xml:space="preserve">
<style type="text/css">
	.Drop_x0020_Shadow{fill:none;}
	.Round_x0020_Corners_x0020_2_x0020_pt{fill:#FFFFFF;stroke:#231F20;stroke-miterlimit:10;}
	.Live_x0020_Reflect_x0020_X{fill:none;}
	.Bevel_x0020_Soft{fill:url(#SVGID_1_);}
	.Dusk{fill:#FFFFFF;}
	.Foliage_GS{fill:#FFDD00;}
	.Pompadour_GS{fill-rule:evenodd;clip-rule:evenodd;fill:#44ADE2;}
	.st0{clip-path:url(#SVGID_5_);}
</style>
<metadata>
	<sfw  xmlns="&ns_sfw;">
		<slices></slices>
		<sliceSourceBounds  bottomLeftOrigin="true" height="178.3" width="178.3" x="-20.6" y="-157.6"></sliceSourceBounds>
	</sfw>
</metadata>
<linearGradient id="SVGID_1_" gradientUnits="userSpaceOnUse" x1="0" y1="0" x2="0.7071" y2="0.7071">
	<stop  offset="0" style="stop-color:#DEDFE3"/>
	<stop  offset="0.1783" style="stop-color:#DADBDF"/>
	<stop  offset="0.3611" style="stop-color:#CECFD3"/>
	<stop  offset="0.546" style="stop-color:#B9BCBF"/>
	<stop  offset="0.7324" style="stop-color:#9CA0A2"/>
	<stop  offset="0.9181" style="stop-color:#787D7E"/>
	<stop  offset="1" style="stop-color:#656B6C"/>
</linearGradient>
<g>
	<defs>
		<rect id="SVGID_2_" x="-20.6" y="-20.6" width="178.3" height="178.3"/>
	</defs>
	<clipPath id="SVGID_3_">
		<use xlink:href="#SVGID_2_"  style="overflow:visible;"/>
	</clipPath>
	<g style="clip-path:url(#SVGID_3_);">
		
			<image style="overflow:visible;" width="1080" height="1080" xlink:href="850331CE.png"  transform="matrix(0.1651 0 0 0.1651 -20.5833 -20.6429)">
		</image>
	</g>
</g>
<g>
	<defs>
		<path id="SVGID_4_" d="M25.7,114.3v0.9H22v2.9h3v0.9h-3v3.9h-1.1v-8.6H25.7z M31.8,114.3v5.4c0,0.8,0.2,1.3,0.6,1.7
			c0.4,0.4,0.9,0.6,1.6,0.6c0.7,0,1.2-0.2,1.5-0.6c0.4-0.4,0.6-0.9,0.6-1.7v-5.4h1.1v5.4c0,0.7-0.1,1.3-0.4,1.8
			c-0.3,0.5-0.7,0.9-1.2,1.1c-0.5,0.2-1,0.4-1.6,0.4c-0.6,0-1.2-0.1-1.6-0.4c-0.5-0.2-0.9-0.6-1.2-1.1c-0.3-0.5-0.4-1.1-0.4-1.8
			v-5.4H31.8z M47.2,122.9l-2-3.5h-1.4v3.5h-1.1v-8.6h2.8c0.6,0,1.2,0.1,1.6,0.3c0.4,0.2,0.8,0.5,1,0.9c0.2,0.4,0.3,0.8,0.3,1.3
			c0,0.6-0.2,1.1-0.5,1.6c-0.3,0.5-0.9,0.8-1.5,0.9l2.2,3.6H47.2z M43.8,118.4h1.7c0.6,0,1.1-0.1,1.4-0.4c0.3-0.3,0.5-0.7,0.5-1.2
			c0-0.5-0.1-0.9-0.4-1.2c-0.3-0.3-0.8-0.4-1.4-0.4h-1.7V118.4z M60.6,122.9h-1.1L55,116v6.8h-1.1v-8.6H55l4.5,6.8v-6.8h1.1V122.9z
			 M67.3,114.3v8.6h-1.1v-8.6H67.3z M78.2,114.3v0.9h-2.3v7.7h-1.1v-7.7h-2.4v-0.9H78.2z M84.3,114.3v5.4c0,0.8,0.2,1.3,0.6,1.7
			c0.4,0.4,0.9,0.6,1.6,0.6c0.7,0,1.2-0.2,1.5-0.6c0.4-0.4,0.6-0.9,0.6-1.7v-5.4h1.1v5.4c0,0.7-0.1,1.3-0.4,1.8
			c-0.3,0.5-0.7,0.9-1.2,1.1c-0.5,0.2-1,0.4-1.6,0.4c-0.6,0-1.2-0.1-1.6-0.4c-0.5-0.2-0.9-0.6-1.2-1.1c-0.3-0.5-0.4-1.1-0.4-1.8
			v-5.4H84.3z M99.8,122.9l-2-3.5h-1.4v3.5h-1.1v-8.6H98c0.6,0,1.2,0.1,1.6,0.3c0.4,0.2,0.8,0.5,1,0.9c0.2,0.4,0.3,0.8,0.3,1.3
			c0,0.6-0.2,1.1-0.5,1.6c-0.3,0.5-0.9,0.8-1.5,0.9l2.2,3.6H99.8z M96.4,118.4H98c0.6,0,1.1-0.1,1.4-0.4c0.3-0.3,0.5-0.7,0.5-1.2
			c0-0.5-0.1-0.9-0.4-1.2c-0.3-0.3-0.8-0.4-1.4-0.4h-1.7V118.4z M107.5,115.1v2.9h3.1v0.9h-3.1v3h3.5v0.9h-4.6v-8.6h4.6v0.9H107.5z"
			/>
	</defs>
	<clipPath id="SVGID_5_">
		<use xlink:href="#SVGID_4_"  style="overflow:visible;"/>
	</clipPath>
	<g class="st0">
		<defs>
			<rect id="SVGID_6_" x="-20.6" y="-20.6" width="178.3" height="178.3"/>
		</defs>
		<clipPath id="SVGID_7_">
			<use xlink:href="#SVGID_6_"  style="overflow:visible;"/>
		</clipPath>
		<g style="clip-path:url(#SVGID_7_);">
			
				<image style="overflow:visible;" width="1080" height="1080" xlink:href="850331CA.jpg"  transform="matrix(0.1651 0 0 0.1651 -20.5833 -20.6429)">
			</image>
		</g>
	</g>
</g>
<g>
	<path d="M125.8,89.9H125v-0.3h1.9v0.3h-0.8v2.3h-0.3V89.9z"/>
	<path d="M129.5,91.1c0-0.4,0-0.8,0-1.1h0c-0.1,0.3-0.2,0.6-0.3,1l-0.5,1.2h-0.3L128,91c-0.1-0.4-0.2-0.7-0.3-1h0c0,0.3,0,0.8,0,1.1
		l-0.1,1.1h-0.3l0.2-2.6h0.4l0.4,1.2c0.1,0.3,0.2,0.6,0.3,0.9h0c0.1-0.3,0.2-0.5,0.3-0.9l0.5-1.2h0.4l0.2,2.6h-0.3L129.5,91.1z"/>
</g>
</svg>
